<svg xmlns="http://www.w3.org/2000/svg" width="12.464" height="17.419" viewBox="0 0 12.464 17.419">
  <g id="poojas" transform="translate(-5.983 -2)">
    <path id="Path_1866" data-name="Path 1866" d="M12.264,4.661A5.008,5.008,0,0,1,14.588,2a5.008,5.008,0,0,1,2.324,2.661,7.448,7.448,0,0,0-2.324,2.673A7.444,7.444,0,0,0,12.264,4.661Z" transform="translate(-2.374 0)" fill="#ee4e52"/>
    <path id="Path_1867" data-name="Path 1867" d="M8.389,8.8A5.757,5.757,0,0,1,7,6a5.648,5.648,0,0,1,4.507,2.8Z" transform="translate(-0.384 -1.512)" fill="#ee4e52"/>
    <path id="Path_1868" data-name="Path 1868" d="M17.755,8.8A5.648,5.648,0,0,1,22.262,6a5.757,5.757,0,0,1-1.389,2.8Z" transform="translate(-4.449 -1.512)" fill="#ee4e52"/>
    <path id="Path_1869" data-name="Path 1869" d="M17.793,27a22.326,22.326,0,0,1-1.458,1.866H10.115A22.326,22.326,0,0,1,8.657,27Z" transform="translate(-1.011 -9.447)" fill="#ee4e52"/>
    <path id="Path_1870" data-name="Path 1870" d="M18.143,18.5H6.286c-.694,1.491-.092,2.957.752,4.355H17.392C18.235,21.459,18.838,19.992,18.143,18.5Zm-9.35,3.111a.933.933,0,1,1,.933-.933A.934.934,0,0,1,8.793,21.611Zm3.422,0a.933.933,0,1,1,.933-.933A.934.934,0,0,1,12.215,21.611Zm3.422,0a.933.933,0,1,1,.933-.933A.934.934,0,0,1,15.636,21.611Z" transform="translate(0 -6.235)" fill="#ee4e52"/>
    <path id="Path_1871" data-name="Path 1871" d="M7.891,12.622A.622.622,0,0,1,8.513,12h8.71a.622.622,0,0,1,0,1.244H16.6c0,1.126.748,1.356,1.424,1.866H7.711c.676-.51,1.424-.74,1.424-1.866H8.513A.622.622,0,0,1,7.891,12.622Z" transform="translate(-0.653 -3.779)" fill="#ee4e52"/>
  </g>
</svg>
