<svg id="pandits" xmlns="http://www.w3.org/2000/svg" width="18.116" height="17.175" viewBox="0 0 18.116 17.175">
  <path id="Path_1858" data-name="Path 1858" d="M104.545,13.422a2.955,2.955,0,0,0,2.855-2.973,2.858,2.858,0,0,0-5.711,0A2.955,2.955,0,0,0,104.545,13.422Z" transform="translate(-95.487 -7.712)" fill="#ee4e52"/>
  <path id="Path_1859" data-name="Path 1859" d="M20.338,121.418l2.093.179,1.558-3.366a.459.459,0,0,1,.876.193v1.655l5.073-4.994a9.2,9.2,0,0,0-2.36-.366c-1.26,0-3.539.5-4.361,1.4a44.244,44.244,0,0,0-3.494,5.306A2.438,2.438,0,0,1,20.338,121.418Z" transform="translate(-18.521 -108.192)" fill="#ee4e52"/>
  <path id="Path_1860" data-name="Path 1860" d="M193.093,239.7a1.523,1.523,0,0,0-1.2-.37l-5,.625.527,2.411h4.665a1.524,1.524,0,0,0,1.008-2.666Z" transform="translate(-175.492 -225.194)" fill="#ee4e52"/>
  <path id="Path_1861" data-name="Path 1861" d="M1.524,239.323a1.524,1.524,0,1,0,0,3.048h9.463l-.5-2.284S1.587,239.323,1.524,239.323Z" transform="translate(0 -225.195)" fill="#ee4e52"/>
  <path id="Path_1862" data-name="Path 1862" d="M104.02,132.745l3.542.3h.882l1-.125v-3.56a.459.459,0,0,1,.876-.193l1.594,3.444,2.048-.256a2.444,2.444,0,0,1,.624,0,44.257,44.257,0,0,0-3.494-5.306,3.176,3.176,0,0,0-1.042-.687l-6.033,5.939v.438Z" transform="translate(-97.675 -119.131)" fill="#ee4e52"/>
</svg>
