<svg xmlns="http://www.w3.org/2000/svg" xmlns:xlink="http://www.w3.org/1999/xlink" width="20.333" height="20.333" viewBox="0 0 20.333 20.333">
  <defs>
    <clipPath id="clip-path">
      <path id="Path_1873" data-name="Path 1873" d="M0,0H20.333V20.333H0Z" fill="none"/>
    </clipPath>
  </defs>
  <g id="solutions" clip-path="url(#clip-path)">
    <path id="Path_1872" data-name="Path 1872" d="M14.666,9.007l-4.8,4.8a.844.844,0,0,1-1.195,0l-2.4-2.4A.845.845,0,1,1,7.473,10.21l1.8,1.8,4.194-4.194a.848.848,0,0,1,1.2,1.195Zm-10.972,1.5a6.732,6.732,0,0,1,2.22-4.982l1.3,1.3a.424.424,0,0,0,.72-.3V2.882a.419.419,0,0,0-.424-.424H3.872a.419.419,0,0,0-.3.72L4.711,4.322A8.453,8.453,0,0,0,8.574,18.767a.852.852,0,1,0,.381-1.661,6.778,6.778,0,0,1-5.261-6.6Zm15.25,0a8.485,8.485,0,0,0-6.574-8.26.852.852,0,1,0-.381,1.661A6.745,6.745,0,0,1,15.03,15.488l-1.3-1.3a.424.424,0,0,0-.72.305v3.635a.419.419,0,0,0,.424.424h3.635a.419.419,0,0,0,.3-.72l-1.135-1.144a8.416,8.416,0,0,0,2.711-6.185Z" transform="translate(-0.306 -0.34)" fill="#ee4e52"/>
  </g>
</svg>
