<svg xmlns="http://www.w3.org/2000/svg" width="19.557" height="17.175" viewBox="0 0 19.557 17.175">
  <g id="experience" transform="translate(-1.005 -4.899)">
    <path id="Path_1863" data-name="Path 1863" d="M26.785,10.064l2.206.327a.36.36,0,0,1,.266.2l.987,2.032a.351.351,0,0,0,.633,0l.987-2.032a.346.346,0,0,1,.266-.2l2.206-.327a.36.36,0,0,0,.2-.611l-1.6-1.583a.36.36,0,0,1-.1-.318l.376-2.234a.352.352,0,0,0-.51-.376L30.725,6A.345.345,0,0,1,30.4,6L28.423,4.942a.353.353,0,0,0-.51.376l.376,2.234a.369.369,0,0,1-.1.318l-1.6,1.583a.361.361,0,0,0,.2.611Z" transform="translate(-17.693)" fill="#ee4e52"/>
    <path id="Path_1864" data-name="Path 1864" d="M3.063,41.291a1.91,1.91,0,0,0-.941-.361c-.031,0-.064,0-.095.006a1.109,1.109,0,0,0-.953.776,1.193,1.193,0,0,0,.269,1.241c.578.559,1.14,1.155,1.681,1.733.617.657,1.259,1.335,1.922,1.959a1.692,1.692,0,0,0,.565.406c.058.018.095.034.128.043.028-.015.076-.049.107-.067.5-.321.953-.681.969-1.143a1.529,1.529,0,0,0-.186-.648A9.443,9.443,0,0,0,3.063,41.291Z" transform="translate(0 -25.02)" fill="#ee4e52"/>
    <path id="Path_1865" data-name="Path 1865" d="M26.348,30.205a.588.588,0,0,0-.636-.049,5.684,5.684,0,0,0-.969.614,24.736,24.736,0,0,0-3.285,3.093l-.162.174a.311.311,0,0,1-.092.064,1.985,1.985,0,0,1-1.048.608,8.18,8.18,0,0,1-1.867.2,18.346,18.346,0,0,1-3.325-.394.3.3,0,1,1,.11-.6,12.093,12.093,0,0,0,4.945.2c.345-.079.706-.3.746-.458.018-.07-.073-.162-.128-.211a3.916,3.916,0,0,0-2.5-.733c-.33-.024-.669-.052-1.03-.1a2.455,2.455,0,0,1-1.082-.465c-.119-.076-.244-.159-.388-.238a4.116,4.116,0,0,0-3.184-.5,5.31,5.31,0,0,0-1.314.669,15.585,15.585,0,0,0-1.705,1.3,10.042,10.042,0,0,1,3.5,4.071c.015.037.034.073.049.113,1.378-.052,2.634-.128,3.961-.208.84-.052,1.693-.1,2.592-.15a3.836,3.836,0,0,0,2.778-1.47l3.337-4.1a5.908,5.908,0,0,0,.688-1C26.4,30.508,26.461,30.324,26.348,30.205Z" transform="translate(-5.85 -17.492)" fill="#ee4e52"/>
  </g>
</svg>
